<svg width="18" height="18" viewBox="0 0 18 18" fill="none" xmlns="http://www.w3.org/2000/svg">
<path d="M17.2012 1.5V13.6875C17.2012 13.874 17.1271 14.0528 16.9953 14.1847C16.8634 14.3165 16.6846 14.3906 16.4981 14.3906C16.3116 14.3906 16.1328 14.3165 16.0009 14.1847C15.869 14.0528 15.795 13.874 15.795 13.6875V3.19688L1.99496 16.9969C1.86167 17.1211 1.68538 17.1887 1.50322 17.1855C1.32106 17.1823 1.14727 17.1085 1.01844 16.9796C0.889616 16.8508 0.815823 16.677 0.81261 16.4949C0.809396 16.3127 0.877011 16.1364 1.00121 16.0031L14.8012 2.20312H4.31059C4.12411 2.20312 3.94526 2.12905 3.8134 1.99718C3.68154 1.86532 3.60746 1.68648 3.60746 1.5C3.60746 1.31352 3.68154 1.13468 3.8134 1.00282C3.94526 0.870954 4.12411 0.796875 4.31059 0.796875H16.4981C16.6846 0.796875 16.8634 0.870954 16.9953 1.00282C17.1271 1.13468 17.2012 1.31352 17.2012 1.5Z" fill="black"/>
</svg>
