<svg width="49" height="48" viewBox="0 0 49 48" fill="none" xmlns="http://www.w3.org/2000/svg">
<circle cx="24.2734" cy="24" r="24" fill="#034AF6"/>
<path d="M14.8139 24.327C14.0674 24.7186 14.0984 25.2922 14.881 25.6018L17.1997 26.5192C17.9829 26.8302 19.1681 26.6605 19.8319 26.1425L29.901 18.2018C30.5629 17.6812 30.6339 17.758 30.059 18.3734L22.099 26.8934C21.5223 27.507 21.6926 28.2605 22.4784 28.5644L22.75 28.6702C23.5358 28.9741 24.8164 29.4844 25.5971 29.8018L28.1687 30.8489C28.95 31.1663 29.7848 30.7922 30.0068 29.9792L33.9261 15.5728C34.1474 14.7599 33.7177 14.4147 32.9713 14.8057L14.8139 24.327Z" fill="white"/>
<path d="M21.1769 33.76C21.1311 33.8974 22.7627 31.3974 22.7627 31.3974C23.224 30.6929 22.9621 29.8522 22.1827 29.5335L20.4034 28.8051C19.624 28.4864 19.2505 28.8606 19.573 29.6393C19.573 29.6393 21.224 33.6187 21.1769 33.76Z" fill="white"/>
</svg>
