<svg width="40" height="41" viewBox="0 0 40 41" fill="none" xmlns="http://www.w3.org/2000/svg">
<rect x="0.493249" y="0.989343" width="38.9428" height="38.9428" stroke="#12141D" stroke-opacity="0.1" stroke-width="0.794752"/>
<path fill-rule="evenodd" clip-rule="evenodd" d="M17.7262 18.9188C14.7712 18.9188 12.3757 21.3019 12.3757 24.2417C12.3757 25.712 12.9729 27.0407 13.9428 28.0055C14.9128 28.9705 16.2483 29.5646 17.7262 29.5646C20.6813 29.5646 23.0768 27.1815 23.0768 24.2417C23.0768 21.3019 20.6813 18.9188 17.7262 18.9188ZM9.26894 24.2417C9.26894 19.595 13.0554 15.8281 17.7262 15.8281C22.3971 15.8281 26.1835 19.595 26.1835 24.2417C26.1835 28.8885 22.3971 32.6553 17.7262 32.6553C15.9528 32.6553 14.3053 32.111 12.9458 31.1829L10.1947 33.9197C9.58812 34.5233 8.60458 34.5233 7.99794 33.9197C7.39131 33.3162 7.39131 32.3377 7.99794 31.7343L10.7489 28.9975C9.816 27.6448 9.26894 26.0061 9.26894 24.2417Z" fill="#024BED"/>
<path fill-rule="evenodd" clip-rule="evenodd" d="M2.88281 19.6319C2.88281 12.4022 8.80171 6.55469 16.0865 6.55469H23.8535C31.1383 6.55469 37.0571 12.4022 37.0571 19.6319C37.0571 25.3331 33.3757 30.173 28.2522 31.9655C27.4429 32.2485 26.5561 31.8254 26.2714 31.0203C25.9869 30.2152 26.4122 29.3329 27.2215 29.0498C31.148 27.6762 33.9505 23.9728 33.9505 19.6319C33.9505 14.1238 29.4372 9.64538 23.8535 9.64538H16.0865C10.5027 9.64538 5.98958 14.1238 5.98958 19.6319C5.98958 21.4488 6.47868 23.1482 7.33318 24.6134C7.76372 25.3517 7.51118 26.2973 6.76912 26.7256C6.02706 27.1539 5.07649 26.9027 4.64595 26.1644C3.52438 24.2413 2.88281 22.0086 2.88281 19.6319Z" fill="#024BED"/>
</svg>
