<svg width="32" height="43" viewBox="0 0 32 43" fill="none" xmlns="http://www.w3.org/2000/svg">
<path fill-rule="evenodd" clip-rule="evenodd" d="M19.6652 0.0251612C19.8256 0.0285412 19.946 0.172461 19.9216 0.331061C19.7236 1.51938 19.5942 2.27934 19.4304 2.83736C19.2774 3.35904 19.1412 3.52768 19.035 3.62188C18.9182 3.72554 18.7364 3.83844 18.2078 3.91148C17.629 3.99148 16.839 3.99984 15.581 3.99984C14.3228 3.99984 13.5328 3.99148 12.954 3.91148C12.4256 3.83844 12.2436 3.72554 12.1268 3.62188C12.0206 3.52768 11.8846 3.35904 11.7314 2.83736C11.5679 2.28028 11.4387 1.52192 11.2412 0.336981C11.2176 0.174781 11.341 0.0284412 11.5048 0.0250012C12.6996 -1.88202e-05 14.0182 -1.89155e-05 15.4694 1.08449e-06H15.6926C17.147 -1.89155e-05 18.4684 -1.88425e-05 19.6652 0.0251612ZM7.70127 0.270101C7.97477 0.233341 8.22365 0.426961 8.26323 0.700061L8.27533 0.783461L8.28023 0.814921L8.29427 0.899221C8.47507 1.98438 8.63233 2.92832 8.85371 3.68264C9.09193 4.49428 9.44913 5.2564 10.1367 5.86642C10.8478 6.49736 11.6668 6.76242 12.5442 6.88368C13.3714 6.998 14.3922 7.0003 15.5818 7.0003C16.7714 7.0003 17.7922 6.998 18.6194 6.88368C19.4966 6.76242 20.3158 6.49736 21.027 5.86642C21.7144 5.2564 22.0716 4.49428 22.3098 3.68264C22.5312 2.92832 22.6886 1.98438 22.8694 0.899221L22.8834 0.814941L22.9018 0.695761C22.9432 0.424721 23.191 0.233581 23.4628 0.270101C25.5354 0.548761 27.2422 1.13976 28.5924 2.49004C29.9426 3.84032 30.5338 5.54714 30.8124 7.61968C31.082 9.62586 31.082 12.1838 31.082 15.389V27.612C31.082 30.8172 31.082 33.375 30.8124 35.3812C30.5338 37.4538 29.9426 39.1606 28.5924 40.5108C27.2422 41.8612 25.5354 42.4522 23.4628 42.7308C21.4566 43.0006 18.8986 43.0004 15.6934 43.0004H15.4706C12.2654 43.0004 9.70743 43.0006 7.70127 42.7308C5.62873 42.4522 3.92191 41.8612 2.57163 40.5108C1.22135 39.1606 0.630332 37.4538 0.351692 35.3812C0.0819722 33.375 0.0819922 30.8172 0.0820322 27.612V15.3889C0.0819922 12.1838 0.0819722 9.62582 0.351692 7.61968C0.630332 5.54714 1.22135 3.84032 2.57163 2.49004C3.92191 1.13976 5.62873 0.548761 7.70127 0.270101ZM12.082 37.5C12.082 36.6716 12.7536 36 13.582 36H17.582C18.4104 36 19.082 36.6716 19.082 37.5C19.082 38.3284 18.4104 39 17.582 39H13.582C12.7536 39 12.082 38.3284 12.082 37.5Z" fill="#024BED"/>
</svg>
