<svg width="41" height="41" viewBox="0 0 41 41" fill="none" xmlns="http://www.w3.org/2000/svg">
<rect x="0.801843" y="0.989343" width="38.9428" height="38.9428" stroke="#12141D" stroke-opacity="0.2" stroke-width="0.794752"/>
<path d="M23.8516 9.33173C23.8516 6.03976 26.5202 3.37109 29.8122 3.37109C33.1042 3.37109 35.7728 6.03976 35.7728 9.33173C35.7728 12.6237 33.1042 15.2924 29.8122 15.2924C26.5202 15.2924 23.8516 12.6237 23.8516 9.33173Z" fill="#024BED"/>
<path d="M4.77734 31.5895C4.77734 28.2975 7.44601 25.6289 10.738 25.6289C14.03 25.6289 16.6986 28.2975 16.6986 31.5895C16.6986 34.8816 14.03 37.5502 10.738 37.5502C7.44601 37.5502 4.77734 34.8816 4.77734 31.5895Z" fill="#024BED"/>
<path fill-rule="evenodd" clip-rule="evenodd" d="M7.55859 14.8989C7.55859 10.9485 10.761 7.74609 14.7114 7.74609H20.2746C21.1525 7.74609 21.8641 8.45775 21.8641 9.3356C21.8641 10.2134 21.1525 10.9251 20.2746 10.9251H14.7114C12.5167 10.9251 10.7376 12.7042 10.7376 14.8989C10.7376 17.0935 12.5167 18.8726 14.7114 18.8726H25.8379C29.7883 18.8726 32.9907 22.075 32.9907 26.0254C32.9907 29.9758 29.7883 33.1782 25.8379 33.1782H20.2746C19.3967 33.1782 18.6851 32.4665 18.6851 31.5886C18.6851 30.7108 19.3967 29.9991 20.2746 29.9991H25.8379C28.0325 29.9991 29.8116 28.22 29.8116 26.0254C29.8116 23.8308 28.0325 22.0516 25.8379 22.0516H14.7114C10.761 22.0516 7.55859 18.8493 7.55859 14.8989Z" fill="#024BED"/>
</svg>
