<svg width="34" height="26" viewBox="0 0 34 26" fill="none" xmlns="http://www.w3.org/2000/svg">
<path d="M25.5473 15.2136C25.8927 15.2136 26.2242 15.1609 26.5541 15.1129C26.4472 15.4723 26.3373 15.8378 26.1607 16.1662C25.9841 16.6433 25.7084 17.0569 25.4342 17.4735C25.205 17.9243 24.8007 18.2294 24.5033 18.6151C24.1919 18.99 23.7675 19.2394 23.4314 19.5507C23.1015 19.876 22.6693 20.0386 22.3254 20.2679C21.9661 20.4739 21.6532 20.7016 21.3186 20.81L20.4837 21.1539L19.7495 21.459L20.5008 24.4609L21.4255 24.2379C21.7213 24.1635 22.0822 24.0768 22.4927 23.973C22.9125 23.8956 23.3601 23.6834 23.8589 23.4897C24.3515 23.2698 24.9215 23.1211 25.4512 22.7679C25.9841 22.4302 26.599 22.1483 27.1412 21.696C27.6663 21.2298 28.2998 20.8255 28.7676 20.2323C29.2787 19.6777 29.7837 19.0953 30.1756 18.4324C30.6294 17.8004 30.9377 17.1064 31.263 16.4203C31.5573 15.7341 31.7943 15.0324 31.9879 14.3508C32.355 12.9846 32.5192 11.6866 32.5827 10.576C32.6354 9.46384 32.6044 8.53911 32.5393 7.86995C32.5161 7.55396 32.4727 7.24727 32.4417 7.03506L32.403 6.77484L32.3627 6.78413C32.0872 5.4972 31.453 4.31456 30.5335 3.37302C29.6139 2.43148 28.4466 1.76951 27.1665 1.4637C25.8865 1.15788 24.546 1.22071 23.3001 1.64491C22.0543 2.06912 20.954 2.83737 20.1265 3.86079C19.299 4.88421 18.7782 6.12098 18.6243 7.42804C18.4704 8.73509 18.6896 10.059 19.2567 11.2467C19.8238 12.4343 20.7155 13.4372 21.8288 14.1392C22.942 14.8412 24.2312 15.2137 25.5473 15.2136ZM8.50866 15.2136C8.85408 15.2136 9.18555 15.1609 9.51548 15.1129C9.4086 15.4723 9.29863 15.8378 9.12205 16.1662C8.94546 16.6433 8.66975 17.0569 8.39558 17.4735C8.16633 17.9243 7.76205 18.2294 7.46465 18.6151C7.15331 18.99 6.7289 19.2394 6.39277 19.5507C6.06284 19.876 5.63068 20.0386 5.28681 20.2679C4.92744 20.4739 4.61456 20.7016 4.27998 20.81L3.44509 21.1539L2.71088 21.459L3.46212 24.4609L4.38686 24.2379C4.68271 24.1635 5.04362 24.0768 5.45409 23.973C5.87387 23.8956 6.32151 23.6834 6.82028 23.4897C7.3113 23.2682 7.88287 23.1211 8.41262 22.7664C8.94546 22.4287 9.5604 22.1468 10.1025 21.6945C10.6276 21.2282 11.2612 20.824 11.729 20.2323C12.2401 19.6777 12.7451 19.0953 13.137 18.4324C13.5908 17.8004 13.8991 17.1064 14.2243 16.4203C14.5186 15.7341 14.7556 15.0324 14.9493 14.3508C15.3164 12.9846 15.4806 11.6866 15.5441 10.576C15.5967 9.46384 15.5657 8.53911 15.5007 7.86995C15.4775 7.55396 15.4341 7.24727 15.4031 7.03506L15.3644 6.77484L15.3241 6.78413C15.0486 5.4972 14.4144 4.31456 13.4948 3.37302C12.5753 2.43148 11.4079 1.76951 10.1279 1.4637C8.84782 1.15788 7.50734 1.22071 6.26149 1.64491C5.01564 2.06912 3.91535 2.83737 3.08788 3.86079C2.26042 4.88421 1.7396 6.12098 1.58568 7.42804C1.43176 8.73509 1.65102 10.059 2.2181 11.2467C2.78518 12.4343 3.67691 13.4372 4.79013 14.1392C5.90335 14.8412 7.19257 15.2137 8.50866 15.2136Z" fill="#4D84FF"/>
<path d="M32.7285 6.18662C32.3884 4.99889 31.7581 3.91131 30.8912 3.02367C29.9056 2.01459 28.6546 1.30514 27.2827 0.977383C25.9108 0.649628 24.4742 0.716963 23.139 1.1716C21.8037 1.62623 20.6245 2.44959 19.7377 3.54642C18.8509 4.64326 18.2927 5.96875 18.1277 7.36956C17.9628 8.77038 18.1978 10.1893 18.8055 11.4621C19.4133 12.7349 20.369 13.8097 21.5621 14.5621C22.7551 15.3145 24.1368 15.7137 25.5473 15.7136L32.7285 6.18662ZM32.7285 6.18662L32.8179 6.16599L32.8976 6.70124L32.9363 6.96147L32.9365 6.96283C32.9674 7.17484 33.0128 7.49426 33.0375 7.82738C33.1048 8.52273 33.1356 9.46959 33.0821 10.5996L33.0819 10.6045L33.0819 10.6045C33.0169 11.7414 32.8486 13.0744 32.4708 14.4806L32.4689 14.4875L32.4689 14.4875C32.2707 15.1849 32.0269 15.9075 31.7225 16.6173L31.7188 16.626L31.7148 16.6344C31.6808 16.7061 31.6466 16.7787 31.6122 16.852C31.3282 17.4556 31.0222 18.1061 30.5947 18.7059C30.1796 19.403 29.6545 20.0073 29.1479 20.5574C28.8843 20.8882 28.5822 21.1593 28.2944 21.3972C28.1755 21.4954 28.0647 21.5838 27.9588 21.6683C27.7888 21.8039 27.6314 21.9294 27.4731 22.0699L27.4674 22.075L27.4615 22.08C27.1593 22.3321 26.8427 22.5318 26.546 22.7061C26.4335 22.7721 26.3281 22.8323 26.227 22.8899C26.0503 22.9908 25.887 23.0839 25.7235 23.1873C25.419 23.3896 25.1099 23.5291 24.8279 23.6426C24.7081 23.6908 24.6013 23.7315 24.5012 23.7697C24.3464 23.8287 24.2079 23.8815 24.0628 23.9463L24.0514 23.9514L24.0399 23.9558C23.9404 23.9945 23.8367 24.0368 23.7303 24.0802C23.3659 24.229 22.9695 24.3908 22.6003 24.4615C22.3743 24.5186 22.1525 24.5732 21.9525 24.6225C21.8027 24.6593 21.6652 24.6932 21.5474 24.7228L21.5427 24.724L21.5427 24.7239L20.618 24.947L20.1361 25.0632L20.0157 24.5823L19.2645 21.5804L19.1599 21.1626L19.5576 20.9973L20.2918 20.6922L20.2933 20.6916L21.1282 20.3477L21.1461 20.3403L21.1645 20.3344C21.2806 20.2967 21.406 20.2339 21.5608 20.1437C21.6305 20.103 21.7011 20.0598 21.7784 20.0126L21.8028 19.9976C21.8838 19.9481 21.9712 19.8949 22.0626 19.8422C22.1964 19.7543 22.3512 19.6689 22.4857 19.5948C22.5398 19.5649 22.5906 19.5369 22.6354 19.5113C22.8159 19.4081 22.9618 19.3115 23.0804 19.1947L23.0859 19.1892L23.0916 19.1839C23.2367 19.0496 23.4011 18.9216 23.5462 18.8087C23.5881 18.7761 23.6284 18.7447 23.6662 18.7148C23.8447 18.5734 23.9932 18.4452 24.1135 18.3019C24.239 18.1402 24.3868 17.9841 24.5134 17.8504C24.5539 17.8077 24.5922 17.7672 24.6269 17.7296C24.7858 17.5574 24.906 17.4092 24.9885 17.2469L25.0012 17.222L25.0165 17.1987L25.0223 17.1899C25.3006 16.767 25.5396 16.4038 25.6918 15.9927L25.7038 15.96L25.7203 15.9294C25.7592 15.8571 25.7945 15.7821 25.8275 15.7041C25.7355 15.7101 25.6419 15.7136 25.5473 15.7136L32.7285 6.18662ZM15.6899 6.18662C15.3497 4.99889 14.7195 3.91131 13.8525 3.02367C12.867 2.01459 11.616 1.30514 10.2441 0.977383C8.87218 0.649628 7.43554 0.716963 6.10033 1.1716C4.76511 1.62623 3.58589 2.44959 2.69907 3.54642C1.81225 4.64326 1.25407 5.96875 1.08911 7.36956C0.924145 8.77038 1.15913 10.1893 1.76689 11.4621C2.37465 12.7349 3.33035 13.8097 4.52342 14.5621C5.71649 15.3145 7.09818 15.7137 8.50866 15.7136L15.6899 6.18662ZM15.6899 6.18662L15.7793 6.16599L15.8589 6.70124L15.8977 6.96147L15.8979 6.96283C15.9288 7.17484 15.9742 7.49425 15.9989 7.82736C16.0662 8.52271 16.097 9.46958 16.0435 10.5996L16.0433 10.6045L16.0432 10.6045C15.9782 11.7414 15.81 13.0744 15.4321 14.4806L15.4303 14.4875L15.4302 14.4875C15.2321 15.1849 14.9883 15.9075 14.6839 16.6173L14.6802 16.626L14.6761 16.6344C14.6422 16.7061 14.608 16.7787 14.5735 16.852C14.2896 17.4556 13.9836 18.1061 13.5561 18.7059C13.1409 19.4031 12.6157 20.0075 12.109 20.5576C11.8455 20.8877 11.5434 21.1583 11.2556 21.3959C11.1375 21.4935 11.0274 21.5813 10.922 21.6653C10.7512 21.8015 10.5932 21.9275 10.4345 22.0684L10.4288 22.0735L10.4228 22.0784C10.1207 22.3305 9.80411 22.5302 9.50733 22.7045C9.3949 22.7706 9.28944 22.8307 9.18838 22.8884C9.01177 22.9891 8.84862 23.0822 8.68524 23.1856C8.38032 23.3889 8.07049 23.5284 7.78854 23.6419C7.67234 23.6886 7.56806 23.7284 7.4704 23.7657C7.31241 23.826 7.17174 23.8797 7.02588 23.9455L7.01369 23.951L7.00123 23.9558C6.90177 23.9945 6.7981 24.0368 6.69171 24.0802C6.3273 24.229 5.93086 24.3908 5.56171 24.4615C5.33569 24.5186 5.11382 24.5732 4.91379 24.6225C4.76406 24.6593 4.62656 24.6932 4.50872 24.7228L4.5041 24.724L4.5041 24.7239L3.57936 24.947L3.09743 25.0632L2.97708 24.5823L2.22583 21.5804L2.12128 21.1626L2.51898 20.9973L3.25319 20.6922L3.25467 20.6916L4.08956 20.3477L4.10744 20.3403L4.12583 20.3344C4.242 20.2967 4.36739 20.2339 4.52216 20.1437C4.59184 20.103 4.66239 20.0599 4.73968 20.0126L4.76418 19.9976C4.84517 19.9481 4.93257 19.8949 5.02398 19.8422C5.15774 19.7543 5.31257 19.6689 5.44706 19.5948C5.50115 19.5649 5.55194 19.5369 5.59676 19.5113C5.77726 19.4081 5.92319 19.3115 6.04173 19.1947L6.04728 19.1892L6.053 19.1839C6.19802 19.0496 6.36247 18.9216 6.50753 18.8087C6.54949 18.7761 6.58982 18.7447 6.62759 18.7148C6.8061 18.5734 6.95462 18.4452 7.07487 18.3018C7.20037 18.1402 7.3482 17.9841 7.47477 17.8504C7.51524 17.8077 7.55354 17.7672 7.58824 17.7296C7.7472 17.5574 7.86733 17.4092 7.94991 17.2469L7.96255 17.222L7.97789 17.1987L7.98365 17.19C8.26192 16.7671 8.50097 16.4038 8.65314 15.9927L8.66521 15.96L8.68168 15.9294C8.72055 15.8571 8.75589 15.7821 8.78886 15.7041C8.69687 15.7101 8.60331 15.7136 8.50869 15.7136L15.6899 6.18662Z" stroke="black" stroke-opacity="0.1"/>
</svg>
