<svg width="28" height="22" viewBox="0 0 28 22" fill="none" xmlns="http://www.w3.org/2000/svg">
<g clip-path="url(#clip0_3282_4102)">
<path d="M10.8801 2.22677C9.33594 2.22677 7.89275 2.48917 6.55048 3.01396C5.20822 3.53876 4.14096 4.25026 3.34872 5.14847C2.55648 6.04668 2.16036 7.01049 2.16036 8.0399C2.16036 8.86746 2.42781 9.66474 2.9627 10.4318C3.49759 11.1988 4.24946 11.8649 5.21831 12.43L6.68673 13.2778L6.15689 14.5494C6.50002 14.3475 6.81288 14.1507 7.09547 13.959L7.76155 13.4897L8.56388 13.6411C9.35108 13.7824 10.1231 13.853 10.8801 13.853C12.4242 13.853 13.8674 13.5906 15.2096 13.0658C16.5519 12.541 17.6191 11.8295 18.4114 10.9313C19.2036 10.0331 19.5997 9.0693 19.5997 8.0399C19.5997 7.01049 19.2036 6.04668 18.4114 5.14847C17.6191 4.25026 16.5519 3.53876 15.2096 3.01396C13.8674 2.48917 12.4242 2.22677 10.8801 2.22677ZM10.8801 0.289062C12.8077 0.289062 14.5915 0.634721 16.2315 1.32604C17.8714 2.01736 19.1658 2.95846 20.1144 4.14934C21.0631 5.34022 21.5374 6.63707 21.5374 8.0399C21.5374 9.44271 21.0631 10.7396 20.1144 11.9304C19.1658 13.1213 17.8714 14.0624 16.2315 14.7538C14.5915 15.4451 12.8077 15.7907 10.8801 15.7907C10.0121 15.7907 9.124 15.71 8.2157 15.5485C6.96427 16.4366 5.56145 17.0825 4.00724 17.4862C3.64392 17.5771 3.20996 17.6578 2.70534 17.7284H2.65993C2.54892 17.7284 2.44547 17.6881 2.34959 17.6073C2.25372 17.5266 2.19569 17.4206 2.1755 17.2894C2.16541 17.2591 2.16036 17.2263 2.16036 17.191C2.16036 17.1557 2.16289 17.1229 2.16793 17.0926C2.17298 17.0623 2.18307 17.0321 2.19821 17.0018L2.23606 16.9261L2.28904 16.8428L2.34959 16.7672L2.41772 16.6915L2.47827 16.6233C2.52873 16.5628 2.64479 16.4366 2.82645 16.2449C3.00811 16.0531 3.13931 15.9043 3.22005 15.7983C3.30079 15.6923 3.41432 15.546 3.56066 15.3593C3.707 15.1726 3.83315 14.9783 3.93912 14.7765C4.04509 14.5746 4.14853 14.3526 4.24946 14.1104C2.99802 13.3837 2.01403 12.4906 1.29748 11.4309C0.58093 10.3712 0.222656 9.24087 0.222656 8.0399C0.222656 6.63707 0.696991 5.34022 1.64566 4.14934C2.59433 2.95846 3.88866 2.01736 5.52865 1.32604C7.16863 0.634721 8.95244 0.289062 10.8801 0.289062ZM23.3238 17.9858C23.4247 18.228 23.5281 18.45 23.6341 18.6519C23.7401 18.8537 23.8662 19.048 24.0126 19.2347C24.1589 19.4214 24.2724 19.5677 24.3532 19.6737C24.4339 19.7797 24.5651 19.9285 24.7468 20.1203C24.9284 20.312 25.0445 20.4382 25.095 20.4988C25.1051 20.5088 25.1252 20.5316 25.1555 20.5669C25.1858 20.6022 25.2085 20.6274 25.2236 20.6426C25.2388 20.6577 25.259 20.6829 25.2842 20.7183C25.3094 20.7536 25.3271 20.7813 25.3372 20.8015L25.375 20.8772L25.4053 20.968L25.4129 21.0664L25.3977 21.1648C25.3674 21.3061 25.3018 21.4171 25.2009 21.4979C25.1 21.5786 24.989 21.6139 24.8679 21.6039C24.3633 21.5332 23.9293 21.4525 23.566 21.3616C22.0118 20.9579 20.609 20.312 19.3575 19.4239C18.4492 19.5854 17.5611 19.6661 16.6932 19.6661C13.9582 19.6661 11.5764 19.0001 9.54788 17.6679C10.1332 17.7083 10.5773 17.7284 10.8801 17.7284C12.5049 17.7284 14.0642 17.5014 15.5578 17.0472C17.0515 16.5931 18.3836 15.9421 19.5543 15.0944C20.8159 14.1659 21.7847 13.0961 22.4609 11.885C23.1371 10.674 23.4752 9.39225 23.4752 8.0399C23.4752 7.26279 23.3591 6.49578 23.127 5.73887C24.4289 6.45541 25.4583 7.35362 26.2152 8.43349C26.9721 9.51336 27.3506 10.674 27.3506 11.9153C27.3506 13.1264 26.9923 14.2592 26.2757 15.3139C25.5592 16.3685 24.5752 17.2591 23.3238 17.9858Z" fill="#68C117"/>
</g>
<defs>
<clipPath id="clip0_3282_4102">
<rect width="27.1279" height="21.3148" fill="white" transform="translate(0.222656 0.289062)"/>
</clipPath>
</defs>
</svg>
